<svg width="16" height="16" viewBox="0 0 16 16" fill="none" xmlns="http://www.w3.org/2000/svg">
  <g clip-path="url(#clip0_2546_1627)">
  <path d="M15.753 14.845L12.1111 11.2032C13.167 9.9355 13.6935 8.30949 13.581 6.66349C13.4686 5.01749 12.726 3.47823 11.5075 2.36585C10.2891 1.25346 8.68876 0.653613 7.03935 0.691111C5.38995 0.728609 3.81848 1.40054 2.65188 2.56715C1.48527 3.73376 0.813325 5.30522 0.775828 6.95463C0.73833 8.60403 1.33818 10.2044 2.45056 11.4228C3.56295 12.6413 5.10224 13.3839 6.74824 13.4963C8.39424 13.6087 10.0202 13.0823 11.2879 12.0264L14.9298 15.6683C15.0389 15.7774 15.187 15.8387 15.3414 15.8387C15.4958 15.8387 15.6438 15.7774 15.753 15.6683C15.8621 15.5591 15.9234 15.411 15.9234 15.2566C15.9234 15.1023 15.8621 14.9542 15.753 14.845ZM1.95828 7.11056C1.95828 6.07478 2.26542 5.06224 2.84087 4.20102C3.41632 3.33979 4.23424 2.66856 5.19118 2.27218C6.14812 1.8758 7.2011 1.77211 8.21698 1.97418C9.23287 2.17625 10.166 2.67504 10.8984 3.40745C11.6308 4.13986 12.1296 5.07301 12.3317 6.08889C12.5337 7.10477 12.43 8.15775 12.0337 9.11469C11.6373 10.0716 10.966 10.8895 10.1048 11.465C9.24359 12.0404 8.23107 12.3476 7.19529 12.3476C5.80685 12.3459 4.47575 11.7936 3.49398 10.8119C2.51221 9.8301 1.95992 8.499 1.95828 7.11056Z" fill="#555555"/>
  </g>
  <defs>
  <clipPath id="clip0_2546_1627">
  <rect width="15.8697" height="15.8697" fill="white" transform="translate(0.130371 0.0561523)"/>
  </clipPath>
  </defs>
  </svg>
